<?xml version="1.0" encoding="UTF-8"?>
<svg id="Layer_2" data-name="Layer 2" xmlns="http://www.w3.org/2000/svg" viewBox="0 0 165 165">
  <defs>
    <style>
      .cls-1 {
        fill: #6e71b7;
      }

      .cls-2 {
        fill: #fff;
      }

      .cls-3 {
        fill: none;
        stroke: #fff;
        stroke-miterlimit: 10;
        stroke-width: 1.04px;
      }
    </style>
  </defs>
  <g id="Layer_1-2" data-name="Layer 1">
    <circle class="cls-2" cx="82.5" cy="82.5" r="82.5"/>
    <circle class="cls-1" cx="82.5" cy="82.5" r="64.5"/>
    <g>
      <path class="cls-3" d="M84.75,28.43c-.03,.23-.08,.47-.08,.7,0,6.55,0,11.72,0,18.27,0,.23,.04,.46,.06,.8h4.37v81.48h-12.62c0-1.2,.03-34.67-.02-35.85-.01-.37-.13-.82-.35-1.1-4.86-6.15-9.74-12.28-14.62-18.41-.06-.08-.15-.13-.33-.28-2.36,9.01-5.51,17.5-13.84,22.99-1.09-1.82-2.11-3.52-3.14-5.24,6.94-4.89,9.36-12.22,11.09-19.89,1.39-6.14,1.91-12.39,1.92-18.69,0-3.13,.13-6.24,1.24-9.22,1.9-5.15,5.51-8.8,10.17-11.47,5.53-3.17,7.4-3.41,13.74-3.91,.33-.03,.65-.12,.98-.19,.48,0,.95,0,1.43,0Zm-8.49,54.56c.08-.03,.16-.05,.24-.08V48.18c2.1,0-.06,0,1.93,0,0-4.72-.03-5.29-.03-12.7-3.64,.7-2.07,0-6.11,2.02-5.97,3.25-9.13,8.06-8.97,15.07,.1,4.09-.44,8.19-.64,12.28-.03,.55,.16,1.21,.48,1.64,1.23,1.66,2.55,3.26,3.84,4.87,3.08,3.87,6.17,7.75,9.25,11.62Z"/>
      <path class="cls-3" d="M106.18,76.2h-5.52c0-1.04,0-1.88,0-2.72,0-3.26,0-6.51,0-9.77,0-2.02-.91-2.91-2.93-2.92-2.06-.01-4.12,0-6.23,0v-12.28c.28-.02,.57-.06,.86-.06,3.46,0,6.92-.02,10.38,0,6.11,.03,10.25,4.2,10.26,10.33,0,5.39,0,10.79,0,16.18,0,.34,0,.67,0,1.12h-5.94l-.88,.12Z"/>
      <path class="cls-3" d="M107.02,79.51c1.13,2.1,3.06,5.8,4.05,7.97,.83,1.83,.16,3.78-1.37,4.96-1.57,1.21-3.69,1.26-5.31,.11-1.61-1.14-2.36-3.12-1.57-4.96,.85-1.97,2.95-5.93,3.96-7.83l.24-.24Z"/>
    </g>
  </g>
</svg>