<?xml version="1.0" encoding="UTF-8"?>
<svg id="Layer_2" data-name="Layer 2" xmlns="http://www.w3.org/2000/svg" viewBox="0 0 202.94 296.43">
  <defs>
    <style>
      .cls-1 {
        fill: none;
        stroke: #5d6060;
        stroke-miterlimit: 10;
        stroke-width: 3px;
      }
    </style>
  </defs>
  <g id="Layer_1-2" data-name="Layer 1">
    <g>
      <path class="cls-1" d="M119.56,1.5c-.08,.68-.23,1.36-.23,2.03-.01,18.98-.01,33.96,0,52.93,0,.67,.11,1.35,.19,2.33h12.66v236.13h-36.58c0-3.49,.08-100.48-.05-103.88-.04-1.09-.37-2.36-1.02-3.19-14.08-17.82-28.23-35.58-42.36-53.35-.18-.22-.44-.38-.95-.8-6.84,26.12-15.98,50.72-40.11,66.63-3.17-5.28-6.13-10.21-9.11-15.18,20.12-14.17,27.13-35.42,32.14-57.65,4.02-17.8,5.54-35.92,5.56-54.15,.01-9.08,.39-18.07,3.58-26.73,5.51-14.93,15.96-25.5,29.49-33.25C88.81,4.18,94.23,3.49,112.59,2.05c.95-.07,1.89-.36,2.84-.55,1.38,0,2.75,0,4.13,0Zm-24.59,158.13c.24-.07,.47-.15,.71-.22V58.73c6.07,0-.18,0,5.58,0,0-13.67-.08-15.33-.08-36.8-10.56,2.04-6,0-17.72,5.86-17.31,9.41-26.46,23.36-25.98,43.68,.28,11.84-1.28,23.73-1.84,35.6-.07,1.58,.46,3.5,1.4,4.76,3.56,4.82,7.4,9.43,11.13,14.12,8.93,11.23,17.87,22.45,26.8,33.68Z"/>
      <path class="cls-1" d="M181.67,139.95h-16c0-3,0-5.44,0-7.88,0-9.44,.03-18.87-.01-28.31-.02-5.84-2.63-8.42-8.48-8.45-5.97-.03-11.94,0-18.06,0V59.71c.81-.06,1.65-.17,2.5-.18,10.03-.01,20.05-.05,30.08,0,17.72,.1,29.71,12.18,29.73,29.94,.02,15.63,0,31.26,0,46.88,0,.97,0,1.94,0,3.24h-17.22l-2.54,.36Z"/>
      <path class="cls-1" d="M184.11,149.54c3.29,6.1,8.88,16.8,11.73,23.09,2.4,5.3,.45,10.95-3.97,14.37-4.55,3.52-10.69,3.64-15.38,.32-4.66-3.31-6.83-9.06-4.54-14.38,2.45-5.72,8.54-17.19,11.47-22.7l.7-.7Z"/>
    </g>
  </g>
</svg>