<?xml version="1.0" encoding="UTF-8"?>
<svg id="Layer_2" data-name="Layer 2" xmlns="http://www.w3.org/2000/svg" viewBox="0 0 56.44 56.44">
  <defs>
    <style>
      .cls-1 {
        fill: #ff9c19;
      }
    </style>
  </defs>
  <g id="Layer_3" data-name="Layer 3">
    <circle class="cls-1" cx="28.22" cy="28.22" r="28.22"/>
    <g>
      <path d="M29.01,9.29c0,.08-.03,.16-.03,.25,0,2.29,0,4.1,0,6.39,0,.08,.01,.16,.02,.28h1.53v28.52h-4.42c0-.42,0-12.13,0-12.55,0-.13-.04-.29-.12-.39-1.7-2.15-3.41-4.3-5.12-6.44-.02-.03-.05-.05-.11-.1-.83,3.15-1.93,6.13-4.84,8.05-.38-.64-.74-1.23-1.1-1.83,2.43-1.71,3.28-4.28,3.88-6.96,.49-2.15,.67-4.34,.67-6.54,0-1.1,.05-2.18,.43-3.23,.67-1.8,1.93-3.08,3.56-4.02,1.94-1.11,2.59-1.19,4.81-1.37,.12,0,.23-.04,.34-.07,.17,0,.33,0,.5,0Zm-2.97,19.1s.06-.02,.09-.03v-12.16c.73,0-.02,0,.67,0,0-1.65,0-1.85,0-4.44-1.27,.25-.72,0-2.14,.71-2.09,1.14-3.2,2.82-3.14,5.28,.03,1.43-.15,2.87-.22,4.3,0,.19,.06,.42,.17,.57,.43,.58,.89,1.14,1.34,1.71,1.08,1.36,2.16,2.71,3.24,4.07Z"/>
      <path d="M36.86,26.02h-1.93c0-.36,0-.66,0-.95,0-1.14,0-2.28,0-3.42,0-.71-.32-1.02-1.02-1.02-.72,0-1.44,0-2.18,0v-4.3c.1,0,.2-.02,.3-.02,1.21,0,2.42,0,3.63,0,2.14,.01,3.59,1.47,3.59,3.62,0,1.89,0,3.77,0,5.66,0,.12,0,.23,0,.39h-2.08l-.31,.04Z"/>
      <path d="M37.15,27.17c.4,.74,1.07,2.03,1.42,2.79,.29,.64,.05,1.32-.48,1.74-.55,.42-1.29,.44-1.86,.04-.56-.4-.82-1.09-.55-1.74,.3-.69,1.03-2.08,1.38-2.74l.08-.08Z"/>
    </g>
  </g>
</svg>