<?xml version="1.0" encoding="UTF-8"?>
<svg id="Layer_2" data-name="Layer 2" xmlns="http://www.w3.org/2000/svg" viewBox="0 0 56.44 56.44">
  <g id="Layer_3" data-name="Layer 3">
    <g>
      <path d="M33.1,18.4c-1.54,.01-2.77,1.25-2.78,2.78,0,1.55,1.25,2.8,2.8,2.8,1.56,0,2.8-1.24,2.79-2.81,0-1.56-1.26-2.79-2.82-2.78Z"/>
      <path d="M23.3,18.4c-1.54,0-2.77,1.24-2.77,2.78,0,1.56,1.23,2.81,2.79,2.81,1.56,0,2.81-1.25,2.8-2.8,0-1.56-1.25-2.79-2.82-2.78Z"/>
      <path d="M28.22,0C12.63,0,0,12.63,0,28.22s12.63,28.22,28.22,28.22,28.22-12.63,28.22-28.22S43.8,0,28.22,0Zm13.8,43.89c-1.02,.03-1.98-.28-2.85-.77-.62-.35-1.16-.82-1.74-1.23-.11-.08-.21-.18-.39-.34-.1,.32-.18,.55-.25,.78-.24,.9-.68,1.62-1.69,1.79-1.12,.19-2.16,.04-2.88-.95-.32-.44-.56-.94-.88-1.49-.11,.18-.19,.29-.26,.42-.19,.35-.36,.72-.57,1.06-1.09,1.76-3.47,1.77-4.57,0-.21-.34-.38-.71-.57-1.06-.07-.12-.15-.24-.28-.46-.12,.25-.21,.41-.28,.57-.63,1.47-1.58,2.05-3.1,1.95-1.01-.07-1.66-.57-1.96-1.54-.1-.33-.21-.67-.34-1.09-.19,.17-.31,.27-.42,.38-1.1,1.04-2.4,1.69-3.89,1.94-.29,.05-.6,.06-.89,.01-.7-.12-1.01-.68-.74-1.32,1.39-3.27,1.99-6.72,2.35-10.22,.4-3.87,.45-7.75,.27-11.64-.26-5.73,4.06-11.11,9.75-12.17,6.7-1.25,12.94,2.92,14.28,9.6,.18,.89,.24,1.83,.2,2.75-.19,5.17-.06,10.32,.85,15.43,.38,2.11,.91,4.18,1.76,6.16,.34,.79-.05,1.41-.92,1.44Z"/>
    </g>
  </g>
</svg>