<?xml version="1.0" encoding="UTF-8"?><svg id="Layer_3" xmlns="http://www.w3.org/2000/svg" viewBox="0 0 57.75 57.75"><circle cx="28.875" cy="28.875" r="28.875" fill="#fff70f"/><circle cx="28.875" cy="28.875" r="22.575" fill="#fff"/><g><path d="M29.6614,9.9506c-.0095,.0818-.0273,.1637-.0274,.2455-.0015,2.2921-.0013,4.101-.0002,6.3931,0,.0812,.0127,.1625,.0226,.2817h1.5292v28.5178h-4.4176c0-.421,.0098-12.135-.0057-12.5458-.005-.1311-.0445-.2856-.1236-.3857-1.7005-2.1517-3.4088-4.2972-5.1164-6.4433-.0214-.0269-.053-.0456-.1142-.0969-.826,3.1543-1.9299,6.1257-4.8442,8.0476-.3827-.6378-.7401-1.2335-1.1001-1.8335,2.4294-1.7118,3.2761-4.2781,3.8822-6.9627,.4854-2.1498,.6686-4.3377,.6711-6.54,.0013-1.0962,.0468-2.1828,.4326-3.2278,.6655-1.8029,1.9277-3.0798,3.5611-4.016,1.937-1.1103,2.5916-1.1939,4.809-1.3681,.1153-.0091,.2286-.0434,.3428-.066,.1663,0,.3325,0,.4988,0Zm-2.9698,19.0977c.0285-.0088,.057-.0175,.0854-.0263v-12.1599c.7335,0-.0214,0,.6741,0,0-1.6514-.0096-1.8515-.0096-4.4445-1.2748,.2462-.7246,0-2.14,.7077-2.0909,1.1366-3.196,2.8212-3.1379,5.2753,.0338,1.4304-.1547,2.8655-.2226,4.2994-.009,.1908,.056,.4226,.1686,.5749,.4301,.582,.8938,1.1393,1.3448,1.7059,1.0791,1.3558,2.1581,2.7116,3.2371,4.0675Z" fill="#3d3d3d"/><path d="M37.5125,26.6716h-1.9323c0-.3629,0-.6574,0-.9519,0-1.1396,.0031-2.2792-.0013-3.4188-.0027-.7059-.3171-1.017-1.0241-1.0208-.7209-.0038-1.4418-.0008-2.181-.0008v-4.2988c.0979-.0072,.1996-.0211,.3014-.0213,1.2108-.0015,2.4217-.0065,3.6325,.0002,2.1402,.0119,3.5877,1.4707,3.591,3.6154,.0029,1.8875,.0006,3.7749,.0006,5.6624,0,.1174,0,.2348,0,.3913h-2.0794l-.3073,.043Z" fill="#3d3d3d"/><path d="M37.8075,27.8298c.3968,.7365,1.0726,2.0288,1.4166,2.7893,.2894,.6397,.0549,1.3225-.48,1.7356-.5497,.4245-1.2916,.4398-1.8575,.0382-.5633-.3997-.8244-1.0936-.5486-1.7365,.2963-.6907,1.0315-2.0762,1.3849-2.742l.0845-.0845Z" fill="#3d3d3d"/></g></svg>